PathFileType	4	(X/Y/Z)	D:\TRACE\v60_Jaco2_6-2-23\BothDRS_Motion1_4-platform.trc
DataRate	CameraRate	NumFrames	NumMarkers	Units	OrigDataRate	OrigDataStartFrame	OrigNumFrames
100.00	100.00	      71	5	mm	100.00	6107	      6979
Frame#	Time	Left_Front			Right_Front			Left_Aft			Right_Aft			Post			
		X1	Y1	Z1	X2	Y2	Z2	X3	Y3	Z3	X4	Y4	Z4	X5	Y5	Z5	

6107	61.060	-786.22742	-20.34172	-645.44769	783.69501	-18.66523	-650.73938	-694.30237	27.39859	488.84784	747.80212	27.78507	498.36230	-0.19959	1263.71497	-1026.93518	
6108	61.070	-786.98322	-20.36599	-645.55701	782.55701	-18.63912	-650.70819	-695.54767	27.39873	488.82053	747.18884	27.70822	498.41959	-1.52745	1263.63831	-1026.83154	
6109	61.080	-787.99255	-20.36671	-645.23193	781.90289	-18.79273	-650.60883	-696.30566	27.36704	488.84805	746.24640	27.84237	498.54358	-2.40006	1263.51013	-1026.73157	
6110	61.090	-789.05505	-20.47015	-645.36560	781.17871	-18.85302	-650.49146	-697.21808	27.27221	488.83658	745.29993	27.85796	498.42377	-3.06927	1263.43872	-1026.12268	
6111	61.100	-790.02594	-20.39474	-645.43738	779.92639	-18.83027	-650.59448	-698.23761	27.44657	488.86658	744.47260	27.86773	498.43750	-4.33735	1263.76440	-1025.57532	
6112	61.110	-790.69733	-20.23061	-645.57440	778.92621	-18.73937	-650.75262	-698.93597	27.43645	488.82434	742.87274	27.74664	498.45447	-5.24792	1263.76660	-1025.01648	
6113	61.120	-791.81812	-20.02926	-645.44922	778.30768	-18.71936	-650.76196	-699.92487	27.34010	488.85123	742.26422	27.64758	498.39987	-6.15451	1263.70715	-1024.31213	
6114	61.130	-792.74963	-20.53792	-645.41742	777.19550	-18.61639	-650.59015	-700.91833	27.31769	488.95682	741.65350	27.61734	498.46405	-7.03316	1263.77661	-1023.96362	
6115	61.140	-793.56213	-20.30523	-645.41022	776.20392	-18.69378	-650.48230	-701.82092	27.22004	488.99478	740.45789	27.59797	498.44272	-8.18029	1263.92212	-1023.35114	
6116	61.150	-794.41125	-20.10828	-645.51288	775.34265	-18.58566	-650.58862	-702.59595	27.07493	488.97086	739.79492	27.62114	498.56464	-8.84852	1264.10278	-1023.44427	
6117	61.160	-795.57739	-19.76755	-645.40991	774.47241	-18.28989	-650.51910	-703.68066	27.08209	489.01590	738.91278	27.48509	498.64584	-9.47646	1264.21008	-1023.57910	
6118	61.170	-796.40521	-19.87063	-645.19061	773.49408	-18.13011	-650.43402	-704.56592	27.14852	489.06250	737.92517	27.40457	498.65417	-10.97893	1264.49841	-1023.57172	
6119	61.180	-797.31976	-19.91719	-645.09100	772.46198	-18.14599	-650.46606	-705.56226	26.97294	488.96863	736.83588	27.25172	498.70117	-11.76479	1264.54883	-1023.55859	
6120	61.190	-798.58270	-19.70305	-645.18744	771.61163	-18.03557	-650.45709	-706.64508	26.94741	489.08453	735.70532	27.19129	498.68979	-12.55151	1264.82764	-1023.53125	
6121	61.200	-799.33594	-19.56051	-645.21881	770.46484	-17.87229	-650.51788	-707.61401	26.94560	489.05801	734.89502	27.27529	498.83615	-13.43536	1265.15698	-1023.52258	
6122	61.210	-800.35834	-19.32871	-644.99750	769.57349	-17.77131	-650.45685	-708.64197	26.80035	489.32297	733.88678	27.02843	498.78189	-14.35853	1265.18518	-1023.79541	
6123	61.220	-801.14313	-19.27668	-645.08575	768.42462	-17.68981	-650.44641	-709.50702	26.79467	489.36252	732.74243	26.74088	498.40326	-15.44705	1265.33032	-1023.34283	
6124	61.230	-802.47382	-19.26028	-645.12714	767.57190	-17.58147	-650.42584	-710.26416	26.76886	489.34058	732.16565	26.84338	498.91876	-16.30229	1265.61169	-1023.20093	
6125	61.240	-803.13544	-19.10958	-645.15851	766.75769	-17.37414	-650.17871	-711.51093	26.46992	489.30402	730.87219	26.77091	498.88260	-17.45721	1265.87549	-1022.61847	
6126	61.250	-804.12970	-19.08362	-645.02472	765.81482	-17.16424	-650.18073	-712.33319	26.38668	489.29883	730.08636	26.64426	498.84332	-18.12585	1266.03455	-1021.97980	
6127	61.260	-805.07715	-18.61421	-644.86859	764.80212	-16.97103	-650.17957	-713.41821	26.36485	489.36566	729.20319	26.59603	498.80103	-19.01149	1266.36768	-1021.55243	
6128	61.270	-806.25311	-18.50229	-644.96143	763.67792	-16.70796	-650.25580	-714.30713	26.24667	489.51642	728.12701	26.53617	498.86389	-20.42636	1266.53027	-1020.74792	
6129	61.280	-807.12561	-18.62646	-645.13794	762.76703	-16.64173	-650.21625	-715.14795	26.25116	489.55438	727.13312	26.43753	499.02579	-21.20428	1266.78162	-1020.32483	
6130	61.290	-807.87927	-18.66360	-644.77771	761.79327	-16.34781	-650.17700	-716.13440	26.16245	489.54285	726.10321	26.21166	499.01282	-22.12933	1266.73865	-1019.68665	
6131	61.300	-809.10162	-18.62243	-644.70221	761.01331	-16.47048	-650.05969	-717.11401	25.81422	489.44986	725.05615	26.09028	499.24954	-23.27205	1266.86707	-1019.59137	
6132	61.310	-809.95392	-18.50417	-645.04419	759.83630	-16.57353	-650.12152	-717.95367	25.90772	489.47421	724.55322	26.22714	499.39398	-24.04556	1267.19885	-1019.48694	
6133	61.320	-810.78662	-18.22634	-644.58624	758.91272	-16.25123	-650.02985	-719.25391	25.74885	489.42358	723.29071	26.04256	499.40576	-25.15576	1267.37988	-1019.11743	
6134	61.330	-811.89532	-17.93987	-644.44031	758.19385	-15.89000	-649.92242	-720.13348	25.85528	489.64664	722.51556	25.88433	499.28925	-26.01279	1267.49890	-1019.17896	
6135	61.340	-813.05414	-17.92827	-644.46246	756.97443	-15.86679	-649.97394	-720.90533	25.79539	490.58505	721.46283	25.72353	499.32562	-27.20639	1268.06689	-1019.50140	
6136	61.350	-813.87079	-17.56571	-644.81494	756.01526	-15.73434	-649.90015	-722.04004	25.37732	489.90778	720.40973	25.61414	499.45200	-27.84367	1268.39319	-1019.66882	
6137	61.360	-814.71979	-17.29016	-644.74438	755.57184	-15.19100	-649.82471	-722.73248	24.94094	489.84085	719.68567	25.35284	499.41086	-28.32262	1268.45154	-1019.74713	
6138	61.370	-815.70947	-16.91149	-644.45270	754.18872	-14.95892	-649.87250	-723.45618	24.54213	489.98279	718.61688	25.01083	499.53192	-29.78590	1269.13330	-1018.96777	
6139	61.380	-816.87848	-16.39470	-644.49738	753.09363	-14.84143	-649.64783	-724.80042	24.55355	489.89938	717.45654	24.70337	499.66833	-30.26170	1269.59985	-1018.81598	
6140	61.390	-817.77277	-16.25048	-644.73541	752.26355	-14.45857	-649.60730	-725.52704	24.51202	490.03265	716.78809	24.61750	499.63412	-31.58892	1270.25171	-1018.17853	
6141	61.400	-818.70728	-15.75531	-644.34564	751.46368	-13.88789	-649.62109	-726.61249	24.20191	490.14508	715.64081	24.45074	499.73709	-32.54031	1270.82556	-1017.75049	
6142	61.410	-819.61053	-15.59846	-644.18591	750.39459	-13.62943	-649.45001	-727.97931	24.45363	490.42319	714.71185	24.19137	499.81757	-33.27166	1271.22046	-1017.22119	
6143	61.420	-820.45325	-15.29926	-644.15466	749.45349	-13.55709	-649.33575	-728.48456	23.80978	490.37872	713.70593	23.86033	499.94894	-34.04095	1271.74329	-1016.10614	
6144	61.430	-821.42108	-14.73756	-644.26550	748.45386	-13.11908	-649.36646	-729.40967	23.47616	490.46014	712.47742	23.62102	500.16693	-35.40511	1272.40027	-1014.77301	
6145	61.440	-822.44397	-14.53325	-643.98834	747.88831	-12.84918	-649.22131	-730.29944	23.32312	490.56744	712.07068	23.37786	500.28946	-36.06261	1272.91626	-1013.37952	
6146	61.450	-823.16351	-14.07029	-643.63971	746.81067	-12.44446	-649.02332	-731.45428	23.05615	490.81793	710.97662	23.08876	500.32352	-36.64996	1273.61047	-1012.29492	
6147	61.460	-824.04053	-13.76212	-643.77368	745.75720	-11.98404	-648.88849	-732.30670	22.92135	491.02570	710.19275	22.81781	500.42679	-38.34015	1274.25598	-1010.96509	
6148	61.470	-824.98749	-13.19111	-643.64764	745.05591	-11.63082	-648.77570	-732.98663	22.60190	491.00967	709.23779	22.52654	500.56714	-38.83750	1274.72803	-1009.36591	
6149	61.480	-825.95013	-13.10390	-643.49493	743.95032	-11.23891	-648.90656	-734.01794	22.26017	490.93909	708.31335	22.33115	500.72241	-40.21817	1275.34058	-1007.92377	
6150	61.490	-826.84479	-12.75046	-643.42676	743.25543	-10.89902	-648.77484	-734.91748	22.06998	491.16495	707.62933	22.06690	500.84262	-40.71717	1276.05115	-1006.39319	
6151	61.500	-827.69666	-12.15678	-643.53564	742.42535	-10.32802	-648.48743	-735.82947	21.82818	491.39584	706.57825	21.72066	500.96246	-41.54967	1276.65344	-1005.62555	
6152	61.510	-828.86383	-11.54853	-643.32330	741.30383	-9.95227	-648.44550	-736.73676	21.64455	491.53085	705.15845	20.96319	500.53287	-42.67926	1277.05017	-1004.98334	
6153	61.520	-829.71423	-11.36118	-643.39075	740.72009	-9.79508	-648.36859	-737.48425	21.51146	491.71979	704.82336	21.22895	501.27405	-43.71218	1277.83044	-1004.81738	
6154	61.530	-830.29425	-11.21386	-643.25433	739.84052	-9.44445	-648.39917	-738.34888	21.16464	491.62433	703.96533	21.11349	501.32828	-44.10943	1278.28809	-1004.71649	
6155	61.540	-831.06360	-10.83610	-643.17395	739.00195	-9.02815	-648.18170	-739.12061	20.91757	491.56229	702.94391	20.73740	501.36719	-44.33304	1278.41125	-1004.60712	
6156	61.550	-832.17145	-10.20831	-643.13635	738.16010	-8.93093	-648.10461	-740.16772	20.68201	491.71231	702.37225	20.50922	501.41010	-45.81967	1279.06689	-1004.09137	
6157	61.560	-833.03186	-9.82910	-643.10114	737.24335	-8.40502	-648.06232	-740.80371	20.46954	491.88834	701.73035	20.37161	501.49976	-46.32306	1279.79321	-1003.95361	
6158	61.570	-833.59625	-9.64471	-642.97552	736.57513	-7.90848	-647.90613	-741.84772	20.53422	491.56750	700.58521	20.09437	501.70291	-47.46267	1280.32739	-1003.29071	
6159	61.580	-834.36584	-9.38643	-642.74384	735.81396	-7.62937	-647.70886	-742.79688	20.14935	491.95303	699.89557	19.76182	501.89066	-48.20154	1280.90356	-1002.81317	
6160	61.590	-835.29321	-8.90959	-642.55359	734.95801	-7.10971	-647.79047	-743.44330	19.73141	492.06000	699.07245	19.46698	501.89856	-49.21393	1281.46399	-1002.18927	
6161	61.600	-835.98511	-8.16487	-642.42450	734.10999	-6.72026	-647.73804	-744.04297	19.35085	492.20276	698.10297	19.23421	502.02618	-49.67222	1282.06470	-1001.55334	
6162	61.610	-836.74188	-7.51347	-642.70886	733.34418	-6.20494	-647.55127	-744.85620	19.15873	492.35327	697.21301	18.94193	502.22171	-50.12631	1282.85217	-999.93549	
6163	61.620	-837.45416	-7.45513	-642.48010	732.53522	-5.94251	-647.52802	-745.71570	18.94000	492.51483	696.85571	18.66412	502.23499	-51.36344	1283.44165	-999.04956	
6164	61.630	-838.45160	-7.03447	-642.11127	731.91473	-5.79861	-647.34760	-746.19836	18.71347	492.74304	695.66217	18.33918	502.53879	-51.67569	1284.16895	-997.52045	
6165	61.640	-839.08441	-6.64024	-642.00220	731.34271	-5.44554	-647.16724	-747.13696	18.19890	492.82767	695.08136	18.12398	502.61670	-52.88945	1285.04541	-996.26904	
6166	61.650	-839.61377	-6.15418	-641.92401	730.53430	-4.70077	-647.06281	-747.76801	17.98827	493.02649	694.62354	17.72032	502.66245	-53.24313	1285.87549	-994.33112	
6167	61.660	-840.36365	-5.66464	-641.78986	729.74176	-4.32390	-646.94708	-748.52631	17.58201	493.17291	693.81165	17.23262	502.77255	-54.27553	1286.71045	-992.68280	
6168	61.670	-841.15137	-4.96895	-641.67120	729.10541	-3.89506	-646.76752	-749.16931	17.28393	493.28690	692.73621	16.90009	503.11829	-54.82122	1287.36633	-990.92035	
6169	61.680	-841.88232	-4.80057	-641.58374	728.49121	-3.47118	-646.76013	-749.78320	17.07664	493.44830	692.36774	16.65567	503.15775	-55.85622	1288.16650	-989.24060	
6170	61.690	-842.62677	-4.45530	-641.46735	727.74786	-2.80713	-646.56696	-750.56866	16.76917	493.52933	691.95227	16.32851	503.17206	-56.31651	1288.71802	-988.16895	
6171	61.700	-843.02991	-3.73624	-641.69287	727.06195	-2.43057	-646.45526	-751.20062	16.39828	493.60397	690.98755	16.12212	503.09680	-56.84697	1289.15186	-986.98645	
6172	61.710	-843.49762	-3.39907	-641.64093	726.62231	-2.36720	-646.36804	-751.72913	16.20137	493.68784	690.12445	15.73728	503.64578	-57.11145	1289.71191	-986.43280	
6173	61.720	-844.21240	-2.93199	-641.36957	725.96332	-1.79289	-646.34766	-752.28168	16.01924	493.80176	689.62885	15.28186	503.91010	-57.65611	1290.15479	-986.23773	
6174	61.730	-845.08362	-2.49378	-641.32153	725.33392	-1.33757	-646.19092	-752.75165	15.45549	493.88196	689.52686	15.21624	503.35117	-58.81659	1291.09753	-986.33466	
6175	61.740	-845.35968	-2.26446	-641.26953	725.03467	-1.08465	-645.99817	-753.36859	15.37786	494.05365	688.95734	14.96974	503.43640	-59.37011	1291.59668	-986.38708	
6176	61.750	-846.00842	-1.71374	-641.05872	724.41321	-0.75605	-646.03906	-753.92023	15.15323	494.06769	688.34546	14.61293	503.51318	-59.64083	1292.13379	-986.43042	
6177	61.760	-846.35455	-1.30579	-640.85669	723.77411	-0.20051	-645.92694	-754.36731	14.55145	494.24774	687.68707	14.19496	503.66049	-59.70248	1292.67493	-986.16876	
